<svg fill="none" height="24" viewBox="0 0 24 24" width="24" xmlns="http://www.w3.org/2000/svg"><g clip-rule="evenodd" fill="#47495f" fill-rule="evenodd"><path d="m5.5 6c0-1.38071 1.11929-2.5 2.5-2.5h4c4.7225 0 8.5 4.05843 8.5 9 0 1.8559-.531 3.5837-1.4435 5.0193-.5229.8228-.8899 1.6835-.8899 2.563v.9177c0 .2761-.2238.5-.5.5-.2761 0-.5-.2239-.5-.5v-.9177c0-1.1536.4783-2.2063 1.046-3.0994.8117-1.2771 1.2874-2.8192 1.2874-4.4829 0-4.44727-3.386-8-7.5-8h-4c-.82842 0-1.5.67157-1.5 1.5v1.5c0 .05374-.00866.10713-.02565.15811l-1.78063 5.34189h1.30628c.27615 0 .5.2239.5.5v4c0 .2761.22386.5.5.5h1.5c.27615 0 .5.2239.5.5s-.22385.5-.5.5h-1.5c-.82842 0-1.5-.6716-1.5-1.5v-3.5h-1.5c-.16072 0-.31164-.0773-.40562-.2076-.09397-.1304-.11954-.298-.06872-.4505l1.97434-5.92304z"/><path d="m7.5 9c0-1.38071 1.11929-2.5 2.5-2.5 1.3807 0 2.5 1.11929 2.5 2.5 0 .58482-.2008 1.1227-.5372 1.5486l1.4886 1.4886c.4259-.3364.9638-.5372 1.5486-.5372 1.3807 0 2.5 1.1193 2.5 2.5s-1.1193 2.5-2.5 2.5-2.5-1.1193-2.5-2.5c0-.4332.1102-.8407.3041-1.1959l-1.6082-1.6082c-.3552.1939-.7627.3041-1.1959.3041-1.38071 0-2.5-1.1193-2.5-2.5zm2.5-1.5c-.82842 0-1.5.67157-1.5 1.5s.67158 1.5 1.5 1.5c.8284 0 1.5-.67157 1.5-1.5s-.6716-1.5-1.5-1.5zm5 5c-.8284 0-1.5.6716-1.5 1.5s.6716 1.5 1.5 1.5 1.5-.6716 1.5-1.5-.6716-1.5-1.5-1.5z"/></g></svg>